<?xml version="1.0" standalone="no"?>
<!DOCTYPE svg PUBLIC "-//W3C//DTD SVG 20010904//EN"
 "http://www.w3.org/TR/2001/REC-SVG-20010904/DTD/svg10.dtd">
<svg version="1.0" xmlns="http://www.w3.org/2000/svg"
 width="700.000000pt" height="700.000000pt" viewBox="0 0 700.000000 700.000000"
 preserveAspectRatio="xMidYMid meet">
<metadata>
Created by potrace 1.14, written by Peter Selinger 2001-2017
</metadata>
<g transform="translate(0.000000,700.000000) scale(0.100000,-0.100000)"
fill="#000000" stroke="none">
<path d="M2155 5429 c-77 -3 -149 -8 -160 -12 -11 -3 -33 -8 -50 -13 -96 -23
-251 -113 -397 -228 l-77 -61 -153 -460 c-83 -253 -153 -464 -154 -470 -2 -9
-64 -199 -234 -715 -34 -102 -62 -189 -64 -195 -3 -13 -199 -612 -332 -1014
-110 -334 -119 -353 -194 -391 -40 -20 -168 -50 -284 -65 -21 -3 -43 -8 -47
-11 -5 -3 -9 -54 -9 -115 l0 -109 642 2 643 3 0 109 c0 122 9 110 -90 121
-252 27 -330 61 -328 143 0 20 59 213 130 427 71 215 142 429 158 478 16 48
32 87 37 87 5 0 64 -21 131 -46 67 -25 145 -54 172 -64 28 -10 86 -32 130 -48
44 -17 215 -81 380 -142 165 -61 331 -123 369 -138 l68 -27 54 -155 c29 -85
70 -202 91 -260 20 -58 36 -118 35 -133 -3 -42 -28 -73 -71 -90 -43 -18 -185
-39 -248 -38 -42 0 -43 -1 -44 -32 -1 -39 -1 -144 0 -174 l1 -23 725 0 c399 0
725 3 726 8 0 4 1 53 2 110 2 117 15 103 -113 122 -146 22 -214 74 -258 197
-51 143 -116 323 -182 508 -39 110 -80 223 -90 250 -10 28 -44 122 -75 210
-31 88 -76 214 -100 280 -24 66 -125 350 -225 630 -100 281 -187 526 -195 545
-8 19 -30 82 -50 140 -20 58 -41 114 -45 125 -5 11 -19 49 -30 85 -12 36 -26
74 -31 85 -4 11 -29 79 -54 150 -25 72 -50 141 -56 154 -5 13 -8 26 -5 28 3 3
36 0 73 -7 215 -37 399 -150 501 -307 22 -35 77 -147 122 -250 45 -104 88
-201 95 -218 80 -180 215 -488 215 -491 0 -2 18 -42 40 -89 22 -47 40 -87 40
-90 0 -4 93 -218 130 -300 10 -22 57 -130 105 -240 48 -110 113 -258 144 -330
32 -71 80 -179 106 -240 26 -60 56 -128 66 -150 10 -22 66 -150 124 -285 58
-135 112 -258 120 -275 8 -16 46 -102 84 -190 l70 -160 149 -3 150 -3 15 38
c8 21 26 63 40 93 14 30 71 159 127 285 56 127 115 258 131 293 16 34 29 64
29 66 0 2 20 47 45 100 25 53 45 99 45 101 0 2 13 32 29 67 16 35 93 207 171
383 78 176 150 338 160 360 10 22 73 164 140 315 67 151 132 298 145 325 12
28 48 109 80 180 31 72 67 153 79 180 13 28 28 63 35 79 6 16 14 27 16 25 2
-3 7 -281 10 -619 4 -338 8 -743 10 -900 9 -765 7 -969 -7 -984 -37 -37 -227
-112 -378 -149 l-55 -13 -1 -112 0 -112 798 0 799 0 -3 112 -3 111 -105 28
c-164 43 -297 104 -325 148 -5 9 -10 99 -11 201 -2 223 -15 1614 -19 2040 -6
574 -7 921 -4 923 52 28 73 37 119 50 74 21 102 26 188 29 39 1 73 5 73 8 1 3
2 51 3 108 l2 102 -539 0 c-495 0 -541 -1 -569 -17 -43 -26 -92 -116 -218
-398 -61 -137 -123 -274 -137 -304 -14 -30 -40 -89 -58 -130 -18 -42 -43 -98
-55 -126 -22 -49 -46 -103 -88 -195 -278 -620 -390 -870 -419 -935 -19 -44
-48 -107 -63 -140 -16 -33 -76 -168 -135 -300 -59 -132 -110 -244 -112 -249
-4 -6 -73 125 -73 139 0 2 -14 34 -31 72 -35 78 -32 70 -134 303 -42 96 -85
193 -95 215 -11 22 -72 159 -136 305 -63 146 -124 283 -134 305 -9 22 -41 94
-70 160 -29 66 -60 138 -70 160 -10 22 -46 103 -80 180 -34 77 -70 158 -80
180 -9 22 -74 169 -144 326 -70 157 -143 314 -164 349 -61 105 -27 99 -557
102 -253 2 -523 0 -600 -3z m-416 -941 c11 -35 30 -90 42 -123 12 -33 39 -109
60 -170 20 -60 65 -189 99 -285 172 -489 280 -803 278 -806 -2 -1 -156 54
-343 122 -187 68 -365 133 -395 144 -110 38 -135 49 -134 57 3 15 368 1123
371 1123 1 0 11 -28 22 -62z"/>
</g>
</svg>
