<?xml version="1.0" encoding="UTF-8"?>
<svg id="Livello_1" data-name="Livello 1" xmlns="http://www.w3.org/2000/svg" viewBox="0 0 1297.56 500.59">
  <defs>
    <style>
      .cls-1 {
        stroke-width: 0px;
      }
    </style>
  </defs>
  <path id="hello" class="cls-1" d="m366.57,134.65v313.97c0,2.54,3.49,5.65,10.46,9.35,6.97,3.7,18.06,7.02,33.27,9.98v23.13h-166.33v-23.13c28.94-5.91,43.41-12.36,43.41-19.33v-147.64H122.61v147.64c0,2.54,3.43,5.65,10.3,9.35,6.86,3.7,18,7.02,33.43,9.98v23.13H0v-23.13c28.94-5.91,43.41-12.36,43.41-19.33V134.65c0-2.53-3.44-5.7-10.3-9.5-6.87-3.8-17.9-7.18-33.11-10.14v-23.13h166.33v23.13c-29.15,6.13-43.72,12.67-43.72,19.64v128.31h164.75v-128.31c0-2.53-3.44-5.7-10.3-9.5-6.87-3.8-17.9-7.18-33.11-10.14v-23.13h166.33v23.13c-29.15,6.13-43.72,12.67-43.72,19.64Zm304.67,118.65c-8.55-19.75-21.65-35.75-39.29-48-17.64-12.25-40.29-18.38-67.96-18.38-16.05,0-31.84,2.91-47.37,8.71-15.52,5.81-28.89,12.83-40.08,21.07-43.51,31.9-65.27,76.67-65.27,134.33,0,29.78,5.96,55.92,17.9,78.41,11.93,22.5,27.83,39.97,47.68,52.44,19.85,12.46,41.82,18.69,65.9,18.69,16.9,0,32.16-1.8,45.78-5.39,13.62-3.59,27.72-10.5,42.3-20.75,14.57-10.24,31.68-25.29,51.33-45.15-.85-1.69-3.12-5.12-6.81-10.3-3.7-5.17-6.92-8.5-9.66-9.98-16.48,11.41-30.21,19.86-41.19,25.35-10.99,5.5-20.7,9.03-29.15,10.61-8.45,1.58-17.11,2.38-25.98,2.38-25.77,0-45.46-10.56-59.09-31.68-13.62-21.12-20.43-47.73-20.43-79.84s4.7-60.46,14.1-80.63c9.4-20.17,25.61-30.26,48.63-30.26,14.36,0,25.61,4.17,33.74,12.51,8.13,8.35,13.83,18.06,17.11,29.15,3.27,11.09,4.91,20.86,4.91,29.31,0,4.44-.79,7.45-2.38,9.03-1.58,1.58-4.81,2.38-9.66,2.38h-94.32l-.63,35.49h138.36c6.76-2.54,14.89-6.39,24.4-11.56,9.5-5.17,16.16-9.98,19.96-14.42,0-22.6-4.28-43.77-12.83-63.52Zm11.29,237.78v-23.13c18.16-3.17,30.2-6.34,36.12-9.5,5.91-3.17,8.87-6.44,8.87-9.82V89.98c0-12.46-1.06-21.43-3.17-26.93-2.11-5.49-6.13-9.13-12.04-10.93-5.92-1.79-14.79-3.33-26.61-4.59v-22.18c21.12-2.96,39.6-6.23,55.44-9.82,15.84-3.59,32.1-8.76,48.79-15.52l13.62,12.99v435.64c0,3.17,3.22,6.45,9.66,9.82,6.44,3.38,18.32,6.55,35.64,9.5v23.13h-166.33Zm155.92,0v-23.13c18.16-3.17,30.2-6.34,36.12-9.5,5.91-3.17,8.87-6.44,8.87-9.82V89.98c0-12.46-1.06-21.43-3.17-26.93-2.12-5.49-6.13-9.13-12.04-10.93-5.91-1.79-14.79-3.33-26.61-4.59v-22.18c21.12-2.96,39.6-6.23,55.45-9.82,15.84-3.59,32.1-8.76,48.79-15.52l13.62,12.99v435.64c0,3.17,3.22,6.45,9.66,9.82,6.44,3.38,18.32,6.55,35.64,9.5v23.13h-166.33Zm459.12-153.66c0,21.12-4.12,41.4-12.36,60.83-8.24,19.44-19.54,36.86-33.9,52.28-14.37,15.42-30.95,27.62-49.74,36.59-18.8,8.97-38.65,13.46-59.56,13.46-29.15,0-54.49-6.55-76.04-19.64-21.54-13.09-38.23-30.94-50.06-53.54-11.83-22.6-17.74-48.26-17.74-76.99,0-20.91,3.8-41.13,11.41-60.67,7.6-19.54,18.38-37.07,32.32-52.59,13.94-15.52,30.46-27.77,49.58-36.75,19.11-8.97,40.08-13.46,62.89-13.46,28.72,0,53.86,6.55,75.41,19.64,21.54,13.1,38.23,30.95,50.06,53.54,11.83,22.6,17.74,48.37,17.74,77.31Zm-79.84,14.26c0-22.39-3.06-43.03-9.19-61.94-6.13-18.9-14.63-34.16-25.5-45.78-10.88-11.61-23.5-17.43-37.86-17.43-17.54,0-31.16,5.02-40.87,15.05-9.72,10.04-16.47,23.71-20.28,41.03-3.8,17.32-5.7,36.86-5.7,58.61s3.33,42.35,9.98,60.51c6.65,18.17,15.47,32.58,26.46,43.25,10.98,10.67,23.02,16,36.12,16,25.13,0,42.56-9.5,52.28-28.51,9.71-19.01,14.57-45.94,14.57-80.79Z"/>
</svg>