<?xml version="1.0" encoding="UTF-8"?>
<svg id="Livello_1" data-name="Livello 1" xmlns="http://www.w3.org/2000/svg" viewBox="0 0 512 512">
  <defs>
    <style>
      .cls-1 {
        stroke-width: 0px;
      }
    </style>
  </defs>
  <path id="icon" class="cls-1" d="m335.12,64.9c3.75,1.57,6.45,4.95,7.2,8.92l11.54,62.57c2.04,11.05,10.69,19.69,21.74,21.72l62.57,11.48c3.97.75,7.35,3.45,8.92,7.2,1.58,3.75,1.12,8.02-1.2,11.4l-36.13,52.43c-6.38,9.25-6.37,21.49,0,30.74l36.12,52.36c2.33,3.38,2.77,7.65,1.2,11.4s-4.95,6.45-8.92,7.2l-62.59,11.54c-11.04,2.04-19.68,10.67-21.71,21.71l-11.54,62.59c-.75,3.97-3.45,7.35-7.2,8.92-3.75,1.58-8.03,1.12-11.4-1.2l-52.35-36.12c-9.26-6.39-21.49-6.39-30.75,0l-52.35,36.12c-3.38,2.33-7.65,2.77-11.4,1.2s-6.45-4.95-7.2-8.92l-11.54-62.59c-2.04-11.04-10.67-19.68-21.71-21.71l-62.59-11.54c-3.98-.75-7.35-3.45-8.92-7.2s-1.12-8.03,1.2-11.4l36.12-52.35c6.39-9.26,6.39-21.49,0-30.75l-36.12-52.35c-2.32-3.38-2.78-7.65-1.2-11.4s4.95-6.45,8.92-7.2l62.59-11.54c11.04-2.04,19.68-10.67,21.71-21.71l11.54-62.59c.75-3.98,3.45-7.35,7.2-8.92s8.02-1.12,11.4,1.2l52.35,36.12c9.26,6.39,21.49,6.39,30.75,0l52.35-36.12c3.38-2.32,7.65-2.78,11.4-1.2Zm-151.12,191.1c0-39.76,32.24-72,72-72s72,32.24,72,72-32.24,72-72,72-72-32.24-72-72Zm168,0c0-53.02-42.98-96-96-96s-96,42.98-96,96,42.98,96,96,96,96-42.98,96-96Z"/>
</svg>