<?xml version="1.0" encoding="UTF-8"?>
<svg id="Livello_1" data-name="Livello 1" xmlns="http://www.w3.org/2000/svg" viewBox="0 0 1024 600">
  <path id="logo" class="cls-1" d="m975.4,534.46c-10.9-5.22-16.35-9.62-16.35-13.2l-4.35-459.62c19.55-12.45,43.51-12.45,56.86-12.45v-31.78h-152.01c-5.67,0-10.01,1.87-13.88,5.59-3.88,3.73-9.69,14.4-17.44,32l-167.36,373.37L496.01,54.99c-7.16-16.11-12.74-26.4-16.77-30.88-4.02-4.48-8.96-6.71-14.92-6.71h-154.77c-41.46,0-81.49,35.48-94.93,47.2l-149.77,457.46c-2.86,8.58-9.52,14.74-19.95,18.45-10.45,3.72-25.44,5.49-44.89,8.92v33.17h187.94v-33.17c-23.46-2.58-40.42-4.05-50.14-8.06-9.73-4-13.3-10.44-10.73-19.31l46.37-140.84,183.6,68.27,25.37,72.57c3.15,9.44.71,16.31-7.29,20.6-8.01,4.29-22.81,5.34-44.84,6.77v33.17h212.82v-33.17c-18.6-2.29-31.16-3.91-38.17-8.49-7.01-4.57-11.95-10.87-14.81-18.88L321.48,50.74c7.62.82,15.86,2.37,24.73,4.69,13.71,3.58,26.9,10.15,39.57,19.69,12.67,9.55,22.87,23.27,30.63,41.17l204.06,466.31h42.84l189.32-425.25,3.67,363.91c0,3.88-5.98,8.36-17.92,13.42-11.95,5.08-27.93,10.58-47.94,14.75v33.17h233.54v-33.17c-21.5-4.17-37.7-9.75-48.6-14.97ZM196.32,311.74l54.59-165.82,74.38,212.77c-42.45-15.28-95.23-34.58-128.98-46.95Z"/>
</svg>
