<?xml version="1.0" encoding="UTF-8"?>
<svg id="Livello_1" data-name="Livello 1" xmlns="http://www.w3.org/2000/svg" viewBox="0 0 1580.89 353.26">
  <defs>
    <style>
      .cls-1 {
        stroke-width: 0px;
      }
    </style>
  </defs>
  <path id="utn" class="cls-1" d="m253.76,20.18c-18.38,3.87-27.57,7.99-27.57,12.39v120.09c0,23.31-4.23,43.23-12.69,59.74-8.46,16.52-20.12,29.14-34.97,37.86-14.85,8.72-31.87,13.09-51.05,13.09s-34.97-3.4-50.15-10.19c-15.19-6.79-27.31-17.18-36.37-31.17-9.06-13.99-13.59-31.77-13.59-53.35V32.57c0-1.6-2.17-3.6-6.49-5.99-4.33-2.4-11.29-4.53-20.88-6.39V5.59h104.9v14.59c-18.38,3.87-27.57,7.99-27.57,12.39v123.08c0,25.58,4.73,45.09,14.19,58.54,9.46,13.46,25.58,20.18,48.35,20.18,12.65,0,22.71-3.63,30.17-10.89,7.46-7.26,12.85-16.71,16.18-28.37,3.33-11.65,5-24.08,5-37.26V32.57c0-1.6-2.17-3.6-6.49-5.99-4.33-2.4-11.29-4.53-20.88-6.39V5.59h89.91v14.59Zm124.71,243.17c-7.86,0-15.95-1.73-24.28-5.2-8.33-3.46-18.28-9.26-29.87-17.38v85.52c0,2.13,2.5,4.26,7.49,6.39,5,2.13,13.75,4.13,26.27,5.99v14.59h-108.1v-14.59c17.58-4.26,26.38-8.39,26.38-12.39V119.69c0-6.66-.43-11.75-1.3-15.29-.87-3.53-3.17-6.06-6.89-7.59-3.73-1.53-9.79-2.5-18.18-2.9v-13.99c10.12-1.33,18.58-2.63,25.38-3.9,6.79-1.26,13.05-2.73,18.78-4.4,5.73-1.66,11.99-3.7,18.78-6.09l8.39,8.39,1.8,24.58c14.79-12.92,27.54-21.65,38.26-26.18,10.72-4.53,19.88-6.79,27.47-6.79,12.12,0,23.28,3.3,33.47,9.89,10.19,6.59,18.38,16.68,24.58,30.27,6.19,13.59,9.29,30.84,9.29,51.75,0,13.19-2.47,26.04-7.39,38.56-4.93,12.52-11.32,23.88-19.18,34.07-7.86,10.19-16.32,18.28-25.38,24.28-9.06,5.99-17.65,8.99-25.78,8.99Zm-13.59-163.84c-3.2,0-6.43.53-9.69,1.6-3.27,1.07-7.26,3.2-11.99,6.39-4.73,3.2-11.02,7.99-18.88,14.39v89.92c9.46,5.46,17.25,9.49,23.38,12.09,6.13,2.6,11.39,4.23,15.79,4.89,4.4.67,8.72,1,12.99,1,10.26,0,18.61-4.96,25.08-14.89,6.46-9.92,9.69-24.14,9.69-42.66,0-17.05-2.3-30.9-6.89-41.56-4.6-10.66-10.42-18.51-17.48-23.58-7.06-5.06-14.39-7.59-21.98-7.59Zm292.37,126.88c-17.58,12.79-32.57,22.15-44.96,28.07s-22.05,8.89-28.97,8.89c-11.46,0-21.35-4.46-29.67-13.39-8.33-8.92-12.49-22.71-12.49-41.36v-112.09h-24.18l-5.79-7.19,15.59-17.78h14.39V29.77L581.52,0l7.59,6.59v64.94h60.94l7.19,7.19c-2.53,4.53-5.86,9.29-9.99,14.29-4.13,5-7.53,8.49-10.19,10.49-3.2-1.6-7.99-3.16-14.39-4.7-6.39-1.53-13.12-2.3-20.18-2.3h-13.39v93.51c0,13.72,1.56,23.28,4.7,28.67,3.13,5.39,7.22,8.09,12.29,8.09,4.66,0,10.09-1,16.28-3s14.89-5.99,26.08-11.99l8.79,14.59Zm181.65-65.94c0,13.32-2.6,26.11-7.79,38.36-5.2,12.26-12.32,23.25-21.38,32.97-9.06,9.73-19.52,17.42-31.37,23.08-11.86,5.66-24.38,8.49-37.56,8.49-18.38,0-34.37-4.13-47.95-12.39s-24.11-19.51-31.57-33.77c-7.46-14.25-11.19-30.44-11.19-48.55,0-13.19,2.4-25.94,7.19-38.26,4.8-12.32,11.59-23.38,20.38-33.17,8.79-9.79,19.21-17.51,31.27-23.18,12.05-5.66,25.28-8.49,39.66-8.49,18.11,0,33.97,4.13,47.55,12.39,13.59,8.26,24.11,19.52,31.57,33.77,7.46,14.25,11.19,30.5,11.19,48.75Zm-50.35,8.99c0-14.12-1.93-27.14-5.79-39.06-3.87-11.92-9.23-21.54-16.08-28.87-6.86-7.32-14.82-10.99-23.88-10.99-11.06,0-19.65,3.17-25.78,9.49-6.13,6.33-10.39,14.96-12.79,25.88-2.4,10.92-3.6,23.25-3.6,36.96s2.1,26.71,6.29,38.16c4.2,11.46,9.76,20.55,16.68,27.27,6.92,6.73,14.52,10.09,22.78,10.09,15.85,0,26.84-5.99,32.97-17.98,6.13-11.99,9.19-28.97,9.19-50.95Zm236.82,87.92v-14.59c9.59-2.53,16.38-4.76,20.38-6.69,4-1.93,5.99-3.76,5.99-5.5v-90.71c0-14.65-1.53-24.64-4.6-29.97-3.07-5.33-8.53-7.99-16.38-7.99-6.39,0-13.76,1.9-22.08,5.69-8.33,3.8-18.95,11.16-31.87,22.08v100.9c0,4.4,8.86,8.46,26.58,12.19v14.59h-100.9v-14.59c17.58-4.66,26.38-8.72,26.38-12.19v-110.89c0-6.92-.4-12.02-1.2-15.29-.8-3.26-3.03-5.56-6.69-6.89-3.67-1.33-9.83-2.53-18.48-3.6v-13.99c12.65-1.33,23.88-3.13,33.67-5.39,9.79-2.26,19.55-5.26,29.27-8.99l8.39,8.39,2.2,28.77c15.45-13.19,29.97-22.68,43.56-28.47s25.58-8.69,35.97-8.69c11.46,0,21.68,3.87,30.67,11.59,8.99,7.73,13.49,20.91,13.49,39.56v113.89c0,1.73,1.8,3.53,5.39,5.39,3.6,1.87,10.66,4.13,21.18,6.79v14.59h-100.9Zm282.56-96.91c0,13.32-2.6,26.11-7.79,38.36-5.2,12.26-12.32,23.25-21.38,32.97-9.06,9.73-19.52,17.42-31.37,23.08-11.86,5.66-24.38,8.49-37.56,8.49-18.38,0-34.37-4.13-47.95-12.39s-24.11-19.51-31.57-33.77c-7.46-14.25-11.19-30.44-11.19-48.55,0-13.19,2.4-25.94,7.19-38.26,4.8-12.32,11.59-23.38,20.38-33.17,8.79-9.79,19.21-17.51,31.27-23.18,12.05-5.66,25.28-8.49,39.66-8.49,18.11,0,33.97,4.13,47.55,12.39,13.59,8.26,24.11,19.52,31.57,33.77,7.46,14.25,11.19,30.5,11.19,48.75Zm-50.35,8.99c0-14.12-1.93-27.14-5.79-39.06-3.86-11.92-9.23-21.54-16.08-28.87-6.86-7.32-14.82-10.99-23.88-10.99-11.06,0-19.65,3.17-25.78,9.49-6.13,6.33-10.39,14.96-12.79,25.88-2.4,10.92-3.6,23.25-3.6,36.96s2.1,26.71,6.29,38.16c4.2,11.46,9.76,20.55,16.68,27.27,6.92,6.73,14.52,10.09,22.78,10.09,15.85,0,26.84-5.99,32.97-17.98,6.13-11.99,9.19-28.97,9.19-50.95Zm258.38-97.91v14.59c9.19,1.47,14.62,3.13,16.29,5,1.66,1.87,2.03,4.33,1.1,7.39l-28.77,94.31-50.15-121.28h-15.39l-47.75,121.28-29.97-94.31c-.93-2.53-.37-4.9,1.7-7.09,2.06-2.2,8.82-3.96,20.28-5.29v-14.59h-90.51v14.59c12.79,2.93,20.05,7.06,21.78,12.39l53.75,164.84c2.4-.53,5.56-1.4,9.49-2.6,3.93-1.2,7.69-3,11.29-5.39s6.06-5.66,7.39-9.79l40.55-99.05,50.97,116.83c2.26-.53,5.46-1.43,9.59-2.7,4.13-1.27,8.09-3.13,11.89-5.59,3.8-2.46,6.22-5.63,7.29-9.49l44.16-147.06c.93-3.06,2.63-5.43,5.1-7.09,2.46-1.66,7.42-3.43,14.89-5.29v-14.59h-64.94Z"/>
</svg>
