<?xml version="1.0" encoding="UTF-8"?>
<svg id="Livello_1" data-name="Livello 1" xmlns="http://www.w3.org/2000/svg" viewBox="0 0 1915.58 263.75">
  <defs>
    <style>
      .cls-1 {
        stroke-width: 0px;
      }
    </style>
  </defs>
  <path id="utn" class="cls-1" d="m253.76,20.58c-18.38,3.87-27.57,7.99-27.57,12.39v120.09c0,23.31-4.23,43.23-12.69,59.74-8.46,16.52-20.12,29.14-34.97,37.86-14.85,8.72-31.87,13.09-51.05,13.09s-34.97-3.4-50.15-10.19c-15.19-6.79-27.31-17.18-36.37-31.17-9.06-13.99-13.59-31.77-13.59-53.35V32.97c0-1.6-2.17-3.6-6.49-5.99-4.33-2.4-11.29-4.53-20.88-6.39V5.99h104.9v14.59c-18.38,3.87-27.57,7.99-27.57,12.39v123.08c0,25.58,4.73,45.09,14.19,58.54,9.46,13.46,25.58,20.18,48.35,20.18,12.65,0,22.71-3.63,30.17-10.89,7.46-7.26,12.85-16.71,16.18-28.37,3.33-11.65,5-24.08,5-37.26V32.97c0-1.6-2.17-3.6-6.49-5.99-4.33-2.4-11.29-4.53-20.88-6.39V5.99h89.91v14.59Zm199.91-.4c-18.98-12.12-43.93-18.18-74.83-18.18-11.72,0-24.11.5-37.16,1.5-13.06,1-25.71,2.4-37.96,4.2-12.26,1.8-23.18,3.9-32.77,6.29l2.6,18.38c8-1.5,17.14-2.88,27.37-4.15v204.76c0,4.4-9.12,8.46-27.37,12.19v14.59h110.89v-14.59c-13.99-2.26-23.08-4.46-27.27-6.59-4.2-2.13-6.29-4-6.29-5.59V23.62c5.84-.29,11.37-.44,16.58-.44,19.05,0,34.53,4.9,46.46,14.69,11.92,9.79,17.88,24.15,17.88,43.06,0,12.52-2.27,22.75-6.79,30.67-4.53,7.93-10.32,13.79-17.38,17.58-7.06,3.8-14.46,5.7-22.18,5.7-4.66,0-9.09-.37-13.29-1.1-4.2-.73-9.03-2.36-14.49-4.9l6.19,20.98c4.4,2,9.56,3.5,15.49,4.5,5.93,1,11.95,1.5,18.08,1.5,8.79,0,18.11-1.73,27.97-5.2,9.86-3.46,19.08-8.66,27.67-15.58,8.59-6.92,15.59-15.58,20.98-25.98,5.39-10.39,8.09-22.51,8.09-36.37,0-22.91-9.49-40.43-28.47-52.55Zm280.43,206.6c-17.58,12.79-32.57,22.15-44.96,28.07-12.39,5.93-22.05,8.89-28.97,8.89-11.46,0-21.35-4.46-29.67-13.39-8.33-8.92-12.49-22.71-12.49-41.36v-112.09h-24.18l-5.79-7.19,15.59-17.78h14.39V30.17L658.37.4l7.59,6.59v64.94h60.94l7.19,7.19c-2.53,4.53-5.86,9.29-9.99,14.29-4.13,5-7.53,8.49-10.19,10.49-3.2-1.6-7.99-3.16-14.39-4.7-6.39-1.53-13.12-2.3-20.18-2.3h-13.39v93.51c0,13.72,1.56,23.28,4.7,28.67,3.13,5.39,7.22,8.09,12.29,8.09,4.66,0,10.09-1,16.28-3s14.89-5.99,26.08-11.99l8.79,14.59Zm206.2-65.94c0,13.32-2.6,26.11-7.79,38.36-5.2,12.26-12.32,23.25-21.38,32.97-9.06,9.73-19.52,17.42-31.37,23.08-11.86,5.66-24.38,8.49-37.56,8.49-18.38,0-34.37-4.13-47.96-12.39s-24.11-19.51-31.57-33.77c-7.46-14.25-11.19-30.44-11.19-48.55,0-13.19,2.4-25.94,7.19-38.26,4.8-12.32,11.59-23.38,20.38-33.17,8.79-9.79,19.21-17.51,31.27-23.18,12.05-5.66,25.28-8.49,39.66-8.49,18.11,0,33.97,4.13,47.55,12.39,13.59,8.26,24.11,19.52,31.57,33.77,7.46,14.25,11.19,30.5,11.19,48.75Zm-50.35,8.99c0-14.12-1.93-27.14-5.79-39.06-3.87-11.92-9.23-21.54-16.08-28.87-6.86-7.32-14.82-10.99-23.88-10.99-11.06,0-19.65,3.17-25.78,9.49-6.13,6.33-10.39,14.96-12.79,25.88-2.4,10.92-3.6,23.25-3.6,36.96s2.1,26.71,6.29,38.16c4.2,11.46,9.76,20.55,16.68,27.27,6.92,6.73,14.52,10.09,22.78,10.09,15.85,0,26.84-5.99,32.97-17.98,6.13-11.99,9.19-28.97,9.19-50.95ZM1221.84,5.99v14.59c10.66,1.47,17.88,3.5,21.68,6.09,3.8,2.6,5.7,4.7,5.7,6.29v157.94l-122.28-169.33c-4.93-6.92-8.39-11.25-10.39-12.99-2-1.73-4.93-2.6-8.79-2.6h-55.75v14.59c6.92,1.07,13.79,4.07,20.58,8.99,2.35,1.7,4.61,3.57,6.79,5.59v195.81c0,1.73-2.13,3.9-6.39,6.49-4.26,2.6-11.26,4.5-20.98,5.69v14.59h84.92v-14.59c-10.39-1.46-17.58-3.46-21.58-5.99-4-2.53-5.99-4.6-5.99-6.19V73.82l122.08,169.15c3.6,4.93,9.29,9.36,17.08,13.29,7.79,3.93,18.01,6.43,30.67,7.49V32.97c0-1.86,2.2-4.06,6.59-6.59,4.4-2.53,11.39-4.46,20.98-5.79V5.99h-84.92Zm212.6,257.75c-16.78,0-31.87-3.5-45.26-10.49-13.39-6.99-24.78-16.48-34.17-28.47-9.39-11.99-16.55-25.68-21.48-41.06-4.93-15.39-7.39-31.47-7.39-48.25,0-18.11,2.93-35.33,8.79-51.65,5.86-16.32,14.12-30.77,24.78-43.36,10.66-12.59,23.31-22.48,37.96-29.67,14.65-7.19,30.77-10.79,48.35-10.79s33.13,3.6,46.66,10.79c13.52,7.19,24.84,16.88,33.97,29.07,9.12,12.19,16.05,25.94,20.78,41.26,4.73,15.32,7.09,31.1,7.09,47.35,0,18.12-3.2,35.3-9.59,51.55-6.39,16.25-15.12,30.67-26.17,43.26-11.06,12.59-23.81,22.48-38.26,29.67-14.46,7.19-29.81,10.79-46.06,10.79Zm8.79-26.97c17.58,0,32.1-8.62,43.56-25.88,11.45-17.25,17.18-43.52,17.18-78.83,0-18.38-2.87-35.63-8.59-51.75-5.73-16.12-13.69-29.2-23.88-39.26-10.19-10.06-22.08-15.08-35.67-15.08-19.18,0-33.87,9.12-44.06,27.37-10.19,18.25-15.29,43.69-15.29,76.33,0,19.85,3.03,37.9,9.09,54.15,6.06,16.25,14.15,29.14,24.28,38.66,10.12,9.53,21.25,14.29,33.37,14.29ZM1915.58,20.58c-11.72,2.4-19.62,4.53-23.68,6.39-4.06,1.87-6.29,3.86-6.69,5.99l-45.76,213c-.8,3.73-3.03,6.83-6.69,9.29-3.67,2.47-7.66,4.33-11.99,5.59-4.33,1.26-7.83,2.23-10.49,2.9l-68.14-181.23-57.35,163.44c-2,5.73-6.43,9.83-13.29,12.29-6.86,2.46-13.02,4.3-18.48,5.49l-51.95-229.18c-.67-3.33-3.07-6.06-7.19-8.19-4.13-2.13-10.92-4.06-20.38-5.79V5.99h97.71v14.59c-8.66.8-14.85,1.93-18.58,3.4-3.73,1.47-5.93,3.1-6.59,4.89-.67,1.8-.8,3.7-.4,5.7l34.17,146.26,58.34-174.83h19.98l66.94,174.83,32.17-147.86c.53-3.06-2.23-5.53-8.29-7.39-6.06-1.86-13.56-3.53-22.48-5V5.99h89.12v14.59Z"/>
</svg>