<?xml version="1.0" encoding="UTF-8"?>
<svg id="Livello_1" data-name="Livello 1" xmlns="http://www.w3.org/2000/svg" viewBox="0 0 673.75 694.68">
  <defs>
    <style>
      .cls-1 {
        fill: #eb0f3a;
        stroke-width: 0px;
      }
    </style>
  </defs>
  <path id="wid" class="cls-1" d="m260.72,55.28c-8.94,1.83-14.95,3.45-18.05,4.87-3.1,1.42-4.8,2.95-5.1,4.57l-34.87,162.34c-.61,2.84-2.31,5.2-5.1,7.08-2.79,1.88-5.84,3.3-9.14,4.26-3.3.96-5.97,1.7-8,2.21l-51.93-138.12-43.71,124.57c-1.52,4.37-4.9,7.49-10.13,9.37-5.23,1.88-9.92,3.27-14.09,4.19L21.02,65.94c-.51-2.54-2.34-4.62-5.48-6.24-3.15-1.62-8.33-3.1-15.53-4.42v-11.12h74.47v11.12c-6.6.61-11.32,1.47-14.16,2.59-2.84,1.12-4.52,2.36-5.03,3.73-.51,1.37-.61,2.82-.3,4.34l26.04,111.47L125.48,44.16h15.23l51.02,133.25,24.52-112.69c.4-2.33-1.7-4.21-6.32-5.63-4.62-1.42-10.33-2.69-17.13-3.81v-11.12h67.92v11.12Zm89.86,180.76v-11.12c7.31-1.93,12.49-3.63,15.53-5.1,3.05-1.47,4.57-2.87,4.57-4.19v-66.85c0-12.39-1.35-20.69-4.04-24.9-2.69-4.21-7.08-6.32-13.17-6.32s-12.03,1.85-18.43,5.56c-6.4,3.71-13.55,8.91-21.47,15.61v76.91c0,3.35,6.75,6.45,20.25,9.29v11.12h-76.91v-11.12c13.4-3.55,20.1-6.65,20.1-9.29V42.94c0-5.68-.3-9.8-.91-12.33-.61-2.54-2.34-4.29-5.18-5.25-2.84-.96-7.51-1.8-14.01-2.51v-10.66c11.37-1.62,20.66-3.32,27.87-5.1,7.21-1.78,14.57-4.14,22.08-7.08l6.7,6.24v110.71c11.57-9.44,22.49-16.32,32.74-20.63,10.25-4.31,19.34-6.47,27.26-6.47,8.73,0,16.52,2.95,23.38,8.83,6.85,5.89,10.28,15.94,10.28,30.15v86.8c0,1.32,1.37,2.69,4.11,4.11,2.74,1.42,8.12,3.15,16.14,5.18v11.12h-76.9Zm219.15-28.48c-4.06,1.62-7.03,2.72-8.91,3.27-1.88.56-3.53.84-4.95.84-4.06,0-6.09-3.96-6.09-11.88v-73.4c0-10.36-3.27-19.04-9.82-26.04-6.55-7.01-16.78-10.51-30.69-10.51-11.27,0-22.23,1.93-32.89,5.79-10.66,3.86-20,9.06-28.02,15.61-8.02,6.55-13.66,13.83-16.9,21.85l3.2,8.22c1.22.3,3.93.03,8.15-.84,4.21-.86,8.78-1.98,13.71-3.35,4.92-1.37,9.14-2.79,12.64-4.26,3.5-1.47,5.2-2.72,5.1-3.73-.61-6.09,1.22-10.86,5.48-14.32,4.26-3.45,8.83-5.18,13.71-5.18,7.61-.1,12.82,1.93,15.61,6.09,2.79,4.16,4.19,9.39,4.19,15.69v17.9c-16.02,2.47-28.62,5.03-37.77,7.68-9.44,2.74-16.65,5.58-21.62,8.53-4.98,2.95-9.14,6.09-12.49,9.44-3.65,3.76-6.75,8.05-9.29,12.87-2.54,4.82-3.81,10.69-3.81,17.59,0,7.82,1.73,14.34,5.18,19.57,3.45,5.23,7.84,9.14,13.17,11.73,5.33,2.59,10.79,3.88,16.37,3.88,6.9,0,15.08-1.93,24.52-5.79,8.6-3.51,17.24-9.68,25.92-18.5.44,6.6,1.71,12.05,3.85,16.29,2.69,5.33,6.12,8,10.28,8,2.54,0,6.29-.99,11.27-2.97,4.97-1.98,10.51-4.59,16.6-7.84,6.09-3.25,11.98-6.85,17.67-10.81l-3.35-11.42Zm-74.85,3.05c-5.23,2.23-9.82,3.35-13.78,3.35-2.64,0-5.66-1.17-9.06-3.5-3.4-2.33-5.1-6.95-5.1-13.86,0-4.26.81-7.92,2.44-10.96,1.62-3.05,3.75-5.89,6.4-8.53s6.72-5.1,11.95-7.08c5.02-1.9,13.53-3.82,25.51-5.77v33.68c-7.34,6.36-13.46,10.59-18.35,12.68Zm178.87,1.83c-13.4,9.75-24.82,16.88-34.26,21.4-9.44,4.52-16.8,6.78-22.08,6.78-8.73,0-16.27-3.4-22.61-10.2-6.35-6.8-9.52-17.31-9.52-31.52v-85.43h-18.43l-4.42-5.48,11.88-13.55h10.96v-31.83l30.76-22.69,5.79,5.03v49.49h46.45l5.48,5.48c-1.93,3.45-4.47,7.08-7.61,10.89-3.15,3.81-5.74,6.47-7.77,7.99-2.44-1.22-6.09-2.41-10.96-3.58-4.87-1.17-10-1.75-15.38-1.75h-10.2v71.27c0,10.46,1.19,17.74,3.58,21.85,2.38,4.11,5.51,6.17,9.37,6.17,3.55,0,7.69-.76,12.41-2.28,4.72-1.52,11.35-4.57,19.87-9.14l6.7,11.12ZM6.55,463.08v-11.12c13.91-2.84,20.86-5.94,20.86-9.29v-150.92c0-1.22-1.65-2.74-4.95-4.57-3.3-1.83-8.6-3.45-15.91-4.87v-11.12h79.95v11.12c-14.01,2.95-21.02,6.09-21.02,9.44v150.92c0,1.22,1.67,2.72,5.03,4.49,3.35,1.78,8.68,3.38,15.99,4.8v11.12H6.55Zm-3.05,227.03v-11.12c13.91-2.84,20.86-5.94,20.86-9.29v-155.94c-3.96.61-7.72,1.17-11.27,1.67-3.56.51-6.75.97-9.59,1.37l-1.98-14.01c6.7-1.73,14.9-3.27,24.59-4.65,9.69-1.37,19.74-2.46,30.15-3.27,10.41-.81,19.97-1.22,28.71-1.22,31.07,0,55.15,8.22,72.26,24.67,17.11,16.45,25.66,39.39,25.66,68.83,0,18.99-2.79,35.05-8.38,48.2-5.58,13.15-12.89,23.76-21.93,31.83-9.04,8.07-18.91,13.91-29.62,17.51-10.71,3.6-21.3,5.41-31.75,5.41H3.5Zm82.08-16.29c5.89,0,12.11-1.52,18.66-4.57s12.69-7.82,18.43-14.31c5.73-6.5,10.41-14.85,14.01-25.05,3.6-10.2,5.41-22.46,5.41-36.78,0-27-5.81-47.64-17.44-61.9-11.63-14.26-28.5-21.4-50.64-21.4-1.83,0-3.71.05-5.63.15-1.93.1-3.91.21-5.94.3v154.11c0,4.06,2.33,6.65,7.01,7.77,4.67,1.12,10.05,1.67,16.14,1.67Zm251.29-57.56c0,10.15-1.98,19.9-5.94,29.24-3.96,9.34-9.39,17.72-16.29,25.13-6.91,7.41-14.87,13.27-23.91,17.59-9.04,4.31-18.58,6.47-28.63,6.47-14.01,0-26.19-3.15-36.55-9.44-10.36-6.29-18.38-14.87-24.06-25.74-5.69-10.86-8.53-23.2-8.53-37.01,0-10.05,1.83-19.77,5.48-29.16,3.65-9.39,8.83-17.82,15.53-25.28,6.7-7.46,14.64-13.35,23.83-17.67,9.19-4.31,19.26-6.47,30.23-6.47,13.81,0,25.89,3.15,36.24,9.44,10.36,6.3,18.37,14.87,24.06,25.74,5.68,10.86,8.53,23.25,8.53,37.16Zm-38.38,6.85c0-10.76-1.47-20.68-4.42-29.77-2.95-9.08-7.03-16.42-12.26-22.01-5.23-5.58-11.3-8.38-18.2-8.38-8.43,0-14.98,2.41-19.65,7.23-4.67,4.82-7.92,11.4-9.75,19.72-1.83,8.33-2.74,17.72-2.74,28.17s1.6,20.36,4.8,29.09c3.2,8.73,7.44,15.66,12.72,20.79,5.28,5.13,11.06,7.69,17.36,7.69,12.08,0,20.46-4.57,25.13-13.71,4.67-9.14,7.01-22.08,7.01-38.83Z"/>
</svg>